<svg width="1564" height="623" viewBox="0 0 1564 623" fill="none" xmlns="http://www.w3.org/2000/svg">
<g opacity="0.5" clip-path="url(#clip0_740_988)">
<path d="M339.701 177.053L339.251 177.048C284.89 179.012 202.458 180.74 198.164 177.517L196.712 179.004C201.558 183.835 314.898 180.036 338.871 179.176L399.673 239.855L921.558 239.284L921.58 237.206L400.542 237.766L339.701 177.053Z" fill="#4C5CAE"/>
<path d="M423.918 218.551L51.8524 218.952L51.8565 221.037L423.062 220.633L491.034 288.478L880.876 288.056L995.618 402.57L1048.95 402.514L1048.95 400.43L996.48 400.488L881.732 285.974L491.897 286.396L423.918 218.551Z" fill="#4C5CAE"/>
<path d="M957.721 390.467L625.701 390.829L554.867 461.821L141.69 462.264L141.694 464.349L555.731 463.902L626.565 392.903L956.858 392.549L1012.03 447.602L1248.01 447.352L1248 445.267L1012.89 445.519L957.721 390.467Z" fill="#4C5CAE"/>
<path d="M1548.71 461.208L1145.44 461.645L1076.44 530.79L754.765 531.131L701.034 477.517L471.177 477.76L471.181 479.845L700.171 479.6L753.902 533.22L1077.31 532.871L1146.3 463.726L1548.71 463.287L1548.71 461.208Z" fill="#4C5CAE"/>
<path d="M686.842 419.338L686.392 419.333C633.487 421.24 553.233 422.932 548.992 419.762L547.547 421.256C552.274 425.94 662.635 422.275 686.012 421.421L745.236 480.521L1253.56 480.029L1253.58 477.945L746.112 478.492L686.842 419.338Z" fill="#4C5CAE"/>
<path d="M825.469 437.773L463.072 438.159L463.069 440.244L824.606 439.855L890.81 505.927L1270.51 505.521L1382.27 617.051L1434.23 616.994L1434.22 614.916L1383.13 614.969L1271.36 503.432L891.673 503.844L825.469 437.773Z" fill="#4C5CAE"/>
<path d="M1438.91 610.227C1437.77 610.228 1436.67 610.565 1435.73 611.195C1434.79 611.825 1434.05 612.72 1433.62 613.767C1433.19 614.814 1433.08 615.965 1433.3 617.076C1433.52 618.186 1434.07 619.206 1434.87 620.005C1435.67 620.805 1436.69 621.349 1437.8 621.568C1438.91 621.787 1440.06 621.672 1441.11 621.237C1442.16 620.802 1443.05 620.066 1443.68 619.124C1444.3 618.181 1444.64 617.073 1444.64 615.941C1444.63 614.423 1444.03 612.969 1442.95 611.898C1441.88 610.826 1440.42 610.225 1438.91 610.227V610.227ZM1438.91 619.592C1438.19 619.594 1437.48 619.381 1436.88 618.981C1436.28 618.581 1435.81 618.012 1435.54 617.346C1435.26 616.68 1435.19 615.946 1435.33 615.239C1435.47 614.531 1435.81 613.88 1436.32 613.37C1436.83 612.859 1437.48 612.511 1438.19 612.37C1438.9 612.228 1439.63 612.3 1440.3 612.576C1440.96 612.851 1441.53 613.318 1441.94 613.918C1442.34 614.518 1442.55 615.223 1442.55 615.945C1442.55 616.911 1442.17 617.838 1441.49 618.521C1440.8 619.205 1439.88 619.59 1438.91 619.592V619.592Z" fill="#4C5CAE"/>
<path d="M1553.39 456.52C1552.26 456.521 1551.15 456.857 1550.21 457.487C1549.27 458.117 1548.54 459.012 1548.1 460.058C1547.67 461.105 1547.56 462.256 1547.78 463.366C1548 464.476 1548.55 465.496 1549.35 466.296C1550.15 467.096 1551.17 467.64 1552.28 467.86C1553.39 468.08 1554.54 467.966 1555.59 467.532C1556.63 467.098 1557.53 466.363 1558.16 465.422C1558.78 464.48 1559.12 463.373 1559.12 462.24C1559.12 461.488 1558.97 460.744 1558.68 460.05C1558.39 459.355 1557.97 458.724 1557.44 458.193C1556.91 457.662 1556.27 457.241 1555.58 456.954C1554.88 456.666 1554.14 456.519 1553.39 456.52V456.52ZM1553.39 465.885C1552.67 465.887 1551.97 465.674 1551.37 465.274C1550.77 464.874 1550.3 464.305 1550.02 463.639C1549.74 462.973 1549.67 462.239 1549.81 461.532C1549.95 460.824 1550.3 460.173 1550.81 459.663C1551.32 459.152 1551.96 458.804 1552.67 458.663C1553.38 458.521 1554.11 458.593 1554.78 458.869C1555.45 459.144 1556.02 459.612 1556.42 460.211C1556.82 460.811 1557.03 461.516 1557.03 462.238C1557.03 463.204 1556.65 464.131 1555.97 464.814C1555.29 465.498 1554.36 465.883 1553.39 465.885V465.885Z" fill="#4C5CAE"/>
<path d="M1252.69 444.689C1252.69 443.762 1252.41 442.856 1251.9 442.086C1251.38 441.316 1250.65 440.716 1249.79 440.362C1248.94 440.007 1248 439.915 1247.09 440.097C1246.18 440.278 1245.34 440.725 1244.69 441.38C1244.03 442.036 1243.59 442.871 1243.41 443.78C1243.23 444.689 1243.32 445.631 1243.68 446.487C1244.03 447.343 1244.63 448.075 1245.4 448.589C1246.17 449.104 1247.08 449.378 1248.01 449.378C1249.25 449.375 1250.44 448.88 1251.32 448.001C1252.19 447.122 1252.69 445.931 1252.69 444.689V444.689Z" fill="#4C5CAE"/>
<path d="M1258.24 478.954C1258.24 478.027 1257.97 477.122 1257.45 476.351C1256.94 475.581 1256.21 474.981 1255.35 474.627C1254.49 474.273 1253.55 474.18 1252.64 474.362C1251.73 474.543 1250.9 474.99 1250.24 475.645C1249.59 476.301 1249.14 477.136 1248.96 478.045C1248.78 478.954 1248.88 479.896 1249.23 480.752C1249.59 481.608 1250.19 482.34 1250.96 482.854C1251.73 483.369 1252.63 483.643 1253.56 483.643C1254.18 483.643 1254.79 483.522 1255.35 483.287C1255.92 483.051 1256.44 482.706 1256.88 482.27C1257.31 481.835 1257.66 481.318 1257.89 480.749C1258.12 480.18 1258.25 479.57 1258.24 478.954V478.954Z" fill="#4C5CAE"/>
<path d="M1053.64 401.466C1053.64 400.539 1053.36 399.634 1052.84 398.864C1052.33 398.093 1051.6 397.493 1050.74 397.139C1049.88 396.785 1048.94 396.693 1048.03 396.874C1047.13 397.055 1046.29 397.502 1045.64 398.158C1044.98 398.813 1044.54 399.648 1044.35 400.557C1044.17 401.466 1044.27 402.409 1044.62 403.265C1044.98 404.121 1045.58 404.852 1046.35 405.367C1047.12 405.881 1048.03 406.155 1048.95 406.155C1049.57 406.155 1050.18 406.035 1050.75 405.799C1051.32 405.564 1051.83 405.218 1052.27 404.783C1052.7 404.347 1053.05 403.83 1053.28 403.261C1053.52 402.692 1053.64 402.082 1053.64 401.466V401.466Z" fill="#4C5CAE"/>
<path d="M926.255 238.235C926.254 237.309 925.979 236.403 925.463 235.633C924.948 234.862 924.216 234.262 923.36 233.908C922.503 233.554 921.561 233.462 920.653 233.643C919.744 233.824 918.909 234.271 918.254 234.927C917.6 235.582 917.154 236.417 916.974 237.326C916.793 238.235 916.887 239.178 917.242 240.034C917.597 240.89 918.197 241.621 918.968 242.136C919.739 242.65 920.645 242.924 921.572 242.924C922.814 242.922 924.004 242.427 924.882 241.548C925.76 240.669 926.254 239.478 926.255 238.235V238.235Z" fill="#4C5CAE"/>
<path d="M475.864 478.796C475.864 477.87 475.588 476.964 475.073 476.194C474.558 475.423 473.826 474.823 472.969 474.469C472.113 474.115 471.171 474.023 470.262 474.204C469.353 474.385 468.519 474.832 467.864 475.488C467.209 476.143 466.763 476.978 466.583 477.888C466.403 478.797 466.496 479.739 466.851 480.595C467.206 481.451 467.807 482.182 468.578 482.697C469.349 483.211 470.255 483.485 471.181 483.485C471.797 483.486 472.406 483.365 472.975 483.129C473.544 482.894 474.061 482.548 474.496 482.113C474.931 481.677 475.275 481.16 475.51 480.591C475.745 480.022 475.865 479.412 475.864 478.796V478.796Z" fill="#4C5CAE"/>
<path d="M147.286 462.509C147.285 461.583 147.01 460.677 146.495 459.906C145.979 459.136 145.247 458.536 144.391 458.182C143.535 457.828 142.593 457.736 141.684 457.917C140.775 458.098 139.94 458.545 139.286 459.201C138.631 459.856 138.185 460.691 138.005 461.6C137.824 462.509 137.918 463.452 138.273 464.308C138.628 465.164 139.229 465.895 139.999 466.41C140.77 466.924 141.676 467.198 142.603 467.198C143.218 467.198 143.828 467.078 144.397 466.842C144.965 466.607 145.482 466.261 145.917 465.826C146.352 465.39 146.697 464.873 146.932 464.304C147.167 463.735 147.287 463.125 147.286 462.509V462.509Z" fill="#4C5CAE"/>
<path d="M552.974 420.533C552.974 419.606 552.698 418.701 552.183 417.93C551.668 417.16 550.936 416.56 550.08 416.206C549.223 415.852 548.281 415.759 547.372 415.941C546.464 416.122 545.629 416.569 544.974 417.225C544.319 417.88 543.874 418.715 543.693 419.624C543.513 420.533 543.606 421.475 543.961 422.331C544.316 423.188 544.917 423.919 545.688 424.433C546.459 424.948 547.365 425.222 548.291 425.222C548.907 425.222 549.516 425.1 550.084 424.864C550.653 424.628 551.169 424.283 551.604 423.848C552.039 423.412 552.384 422.895 552.619 422.327C552.854 421.758 552.975 421.149 552.974 420.533Z" fill="#4C5CAE"/>
<path d="M202.134 178.261C202.133 177.334 201.858 176.429 201.342 175.658C200.827 174.888 200.095 174.288 199.239 173.934C198.383 173.58 197.44 173.488 196.532 173.669C195.623 173.85 194.789 174.297 194.134 174.953C193.479 175.608 193.033 176.443 192.853 177.352C192.673 178.261 192.766 179.203 193.121 180.059C193.476 180.915 194.077 181.647 194.847 182.161C195.618 182.676 196.524 182.95 197.451 182.95C198.693 182.948 199.883 182.453 200.761 181.574C201.639 180.695 202.133 179.504 202.134 178.261Z" fill="#4C5CAE"/>
<path d="M56.5401 219.989C56.5396 219.062 56.2642 218.157 55.749 217.386C55.2337 216.616 54.5016 216.016 53.6453 215.662C52.789 215.308 51.8469 215.216 50.9382 215.397C50.0295 215.578 49.195 216.025 48.5401 216.681C47.8852 217.336 47.4393 218.171 47.259 219.08C47.0787 219.989 47.172 220.932 47.5271 221.788C47.8821 222.644 48.4831 223.375 49.2538 223.89C50.0245 224.404 50.9305 224.678 51.8571 224.678C52.4727 224.679 53.0823 224.558 53.651 224.322C54.2198 224.087 54.7365 223.741 55.1715 223.306C55.6066 222.87 55.9514 222.353 56.1862 221.784C56.4211 221.215 56.5414 220.605 56.5401 219.989V219.989Z" fill="#4C5CAE"/>
<path d="M642.208 546.957C642.215 546.089 641.964 545.239 641.487 544.513C641.01 543.788 640.329 543.22 639.53 542.882C638.73 542.544 637.848 542.451 636.996 542.614C636.143 542.777 635.358 543.19 634.74 543.799C634.122 544.409 633.699 545.188 633.524 546.038C633.348 546.889 633.429 547.772 633.756 548.576C634.083 549.38 634.641 550.069 635.36 550.556C636.079 551.043 636.925 551.306 637.793 551.312C638.956 551.319 640.074 550.864 640.901 550.048C641.729 549.232 642.199 548.12 642.208 546.957Z" fill="#4C5CAE"/>
<path d="M640.275 543.29C639.556 542.804 638.709 542.543 637.841 542.54C636.973 542.536 636.123 542.79 635.4 543.269C634.676 543.748 634.111 544.431 633.775 545.231C633.44 546.032 633.349 546.914 633.515 547.766C633.681 548.618 634.096 549.402 634.707 550.018C635.318 550.634 636.099 551.055 636.949 551.228C637.8 551.4 638.682 551.317 639.485 550.988C640.289 550.659 640.976 550.099 641.461 549.379C642.111 548.414 642.351 547.231 642.128 546.089C641.906 544.947 641.24 543.94 640.275 543.29V543.29Z" fill="#4C5CAE"/>
<path d="M654.536 543.39C653.817 542.905 652.969 542.643 652.101 542.64C651.233 542.636 650.384 542.89 649.66 543.369C648.937 543.848 648.371 544.531 648.036 545.331C647.7 546.132 647.61 547.014 647.776 547.866C647.942 548.718 648.356 549.502 648.968 550.118C649.579 550.734 650.359 551.155 651.21 551.328C652.06 551.5 652.943 551.417 653.746 551.088C654.549 550.759 655.237 550.199 655.721 549.479C656.044 549.001 656.269 548.465 656.384 547.9C656.499 547.336 656.502 546.754 656.392 546.188C656.282 545.623 656.061 545.085 655.743 544.604C655.424 544.124 655.014 543.711 654.536 543.39V543.39Z" fill="#4C5CAE"/>
<path d="M668.79 543.491C668.071 543.005 667.223 542.744 666.355 542.74C665.488 542.736 664.638 542.99 663.914 543.469C663.191 543.949 662.625 544.632 662.29 545.432C661.954 546.233 661.864 547.115 662.03 547.967C662.196 548.819 662.61 549.602 663.222 550.219C663.833 550.835 664.613 551.256 665.464 551.428C666.314 551.601 667.197 551.518 668 551.188C668.803 550.859 669.491 550.299 669.975 549.579C670.298 549.102 670.523 548.566 670.638 548.001C670.753 547.436 670.756 546.855 670.646 546.289C670.535 545.723 670.315 545.185 669.997 544.705C669.678 544.225 669.268 543.812 668.79 543.491Z" fill="#4C5CAE"/>
<path d="M683.057 543.584C682.338 543.1 681.491 542.839 680.623 542.836C679.756 542.833 678.907 543.087 678.183 543.566C677.46 544.045 676.895 544.728 676.56 545.528C676.225 546.328 676.134 547.21 676.3 548.062C676.465 548.913 676.88 549.697 677.49 550.313C678.101 550.929 678.881 551.35 679.731 551.524C680.581 551.697 681.463 551.614 682.266 551.286C683.069 550.958 683.757 550.399 684.243 549.68C684.565 549.202 684.791 548.665 684.906 548.1C685.021 547.535 685.023 546.952 684.913 546.386C684.803 545.82 684.583 545.281 684.264 544.8C683.946 544.32 683.536 543.906 683.057 543.584Z" fill="#4C5CAE"/>
<path d="M697.318 543.684C696.599 543.199 695.752 542.937 694.885 542.933C694.017 542.929 693.168 543.182 692.444 543.66C691.72 544.139 691.154 544.821 690.818 545.621C690.482 546.421 690.39 547.302 690.555 548.154C690.72 549.006 691.134 549.79 691.744 550.407C692.354 551.024 693.133 551.446 693.983 551.62C694.833 551.794 695.716 551.712 696.519 551.384C697.322 551.057 698.011 550.498 698.497 549.78C698.82 549.302 699.046 548.766 699.161 548.201C699.277 547.636 699.28 547.054 699.171 546.488C699.061 545.922 698.841 545.383 698.523 544.902C698.206 544.421 697.796 544.007 697.318 543.684Z" fill="#4C5CAE"/>
<path d="M985.575 491.557C985.581 490.689 985.33 489.838 984.853 489.113C984.377 488.387 983.695 487.82 982.896 487.482C982.096 487.144 981.215 487.05 980.362 487.213C979.509 487.377 978.725 487.789 978.106 488.399C977.488 489.008 977.065 489.788 976.89 490.638C976.715 491.488 976.796 492.371 977.123 493.176C977.45 493.98 978.008 494.669 978.726 495.156C979.445 495.643 980.292 495.906 981.16 495.911C982.322 495.918 983.44 495.464 984.268 494.648C985.096 493.831 985.566 492.72 985.575 491.557V491.557Z" fill="#4C5CAE"/>
<path d="M983.642 487.889C982.922 487.404 982.075 487.143 981.207 487.139C980.339 487.135 979.49 487.389 978.766 487.868C978.042 488.347 977.477 489.03 977.142 489.831C976.806 490.632 976.716 491.514 976.882 492.366C977.047 493.218 977.462 494.001 978.073 494.618C978.685 495.234 979.465 495.655 980.316 495.827C981.166 496 982.049 495.916 982.852 495.587C983.655 495.258 984.342 494.698 984.827 493.978C985.15 493.501 985.375 492.964 985.49 492.4C985.605 491.835 985.607 491.253 985.497 490.688C985.387 490.122 985.167 489.584 984.848 489.104C984.53 488.624 984.12 488.211 983.642 487.889Z" fill="#4C5CAE"/>
<path d="M997.902 487.99C997.183 487.503 996.336 487.241 995.468 487.236C994.6 487.231 993.751 487.484 993.026 487.963C992.302 488.441 991.736 489.123 991.399 489.924C991.063 490.724 990.972 491.606 991.137 492.458C991.302 493.31 991.716 494.095 992.326 494.711C992.937 495.328 993.717 495.75 994.567 495.924C995.418 496.097 996.301 496.014 997.104 495.686C997.908 495.357 998.596 494.798 999.081 494.078C999.405 493.602 999.631 493.066 999.747 492.501C999.863 491.937 999.866 491.355 999.757 490.789C999.647 490.223 999.427 489.685 999.109 489.204C998.791 488.724 998.381 488.311 997.902 487.99Z" fill="#4C5CAE"/>
<path d="M1012.16 488.083C1011.44 487.598 1010.6 487.336 1009.73 487.332C1008.86 487.328 1008.01 487.581 1007.29 488.059C1006.56 488.538 1006 489.22 1005.66 490.02C1005.33 490.82 1005.24 491.701 1005.4 492.553C1005.56 493.405 1005.98 494.189 1006.59 494.806C1007.2 495.423 1007.98 495.845 1008.83 496.019C1009.68 496.193 1010.56 496.111 1011.36 495.783C1012.17 495.456 1012.86 494.897 1013.34 494.179C1013.66 493.701 1013.89 493.165 1014.01 492.6C1014.12 492.035 1014.12 491.453 1014.02 490.887C1013.91 490.321 1013.69 489.782 1013.37 489.301C1013.05 488.82 1012.64 488.406 1012.16 488.083V488.083Z" fill="#4C5CAE"/>
<path d="M1026.42 488.177C1025.7 487.692 1024.86 487.43 1023.99 487.426C1023.12 487.421 1022.27 487.674 1021.55 488.153C1020.83 488.631 1020.26 489.314 1019.92 490.113C1019.59 490.913 1019.5 491.795 1019.66 492.647C1019.83 493.499 1020.24 494.283 1020.85 494.9C1021.46 495.516 1022.24 495.939 1023.09 496.113C1023.94 496.287 1024.82 496.205 1025.62 495.877C1026.43 495.55 1027.12 494.991 1027.6 494.272C1027.93 493.795 1028.15 493.258 1028.27 492.694C1028.38 492.129 1028.39 491.547 1028.28 490.981C1028.17 490.414 1027.95 489.876 1027.63 489.394C1027.31 488.913 1026.9 488.5 1026.42 488.177Z" fill="#4C5CAE"/>
<path d="M1040.65 488.284C1039.93 487.798 1039.09 487.537 1038.22 487.532C1037.35 487.528 1036.5 487.781 1035.78 488.259C1035.05 488.738 1034.49 489.42 1034.15 490.22C1033.82 491.02 1033.72 491.901 1033.89 492.753C1034.05 493.605 1034.47 494.389 1035.08 495.006C1035.69 495.623 1036.47 496.045 1037.32 496.219C1038.17 496.393 1039.05 496.311 1039.85 495.984C1040.66 495.656 1041.34 495.098 1041.83 494.379C1042.48 493.414 1042.72 492.23 1042.5 491.088C1042.28 489.945 1041.61 488.936 1040.65 488.284V488.284Z" fill="#4C5CAE"/>
<path d="M735.743 229.026C735.747 228.557 735.611 228.097 735.354 227.706C735.096 227.314 734.728 227.007 734.297 226.824C733.865 226.642 733.388 226.592 732.928 226.68C732.468 226.768 732.044 226.991 731.71 227.321C731.376 227.65 731.148 228.071 731.053 228.53C730.959 228.99 731.003 229.466 731.18 229.901C731.357 230.335 731.659 230.707 732.047 230.97C732.435 231.232 732.893 231.374 733.362 231.376C733.673 231.379 733.981 231.32 734.269 231.203C734.557 231.086 734.819 230.913 735.04 230.695C735.261 230.477 735.437 230.217 735.558 229.93C735.679 229.644 735.742 229.336 735.743 229.026V229.026Z" fill="#4C5CAE"/>
<path d="M734.706 227.049C734.318 226.788 733.862 226.648 733.395 226.646C732.927 226.644 732.47 226.78 732.08 227.038C731.69 227.295 731.385 227.661 731.203 228.092C731.021 228.522 730.97 228.996 731.056 229.455C731.143 229.914 731.364 230.338 731.69 230.672C732.017 231.006 732.434 231.236 732.891 231.333C733.348 231.43 733.824 231.39 734.258 231.218C734.692 231.046 735.066 230.749 735.332 230.365C735.511 230.107 735.638 229.816 735.704 229.509C735.77 229.202 735.773 228.884 735.715 228.575C735.657 228.267 735.537 227.973 735.364 227.71C735.191 227.448 734.967 227.223 734.706 227.049Z" fill="#4C5CAE"/>
<path d="M742.395 227.105C742.008 226.84 741.551 226.696 741.082 226.692C740.613 226.687 740.153 226.822 739.76 227.079C739.368 227.336 739.061 227.704 738.878 228.136C738.695 228.568 738.644 229.044 738.732 229.505C738.82 229.966 739.042 230.39 739.372 230.724C739.701 231.059 740.122 231.287 740.581 231.382C741.041 231.476 741.518 231.432 741.952 231.255C742.387 231.078 742.759 230.776 743.022 230.388C743.372 229.869 743.503 229.232 743.386 228.617C743.268 228.002 742.912 227.458 742.395 227.105V227.105Z" fill="#4C5CAE"/>
<path d="M750.085 227.154C749.697 226.894 749.241 226.754 748.774 226.752C748.307 226.75 747.849 226.886 747.459 227.143C747.069 227.4 746.764 227.767 746.582 228.197C746.4 228.627 746.349 229.102 746.436 229.561C746.522 230.02 746.743 230.443 747.069 230.777C747.396 231.111 747.814 231.341 748.27 231.439C748.727 231.536 749.203 231.496 749.637 231.324C750.071 231.151 750.445 230.855 750.711 230.471C750.889 230.212 751.014 229.921 751.079 229.614C751.143 229.307 751.147 228.99 751.089 228.682C751.03 228.374 750.912 228.08 750.739 227.818C750.567 227.556 750.345 227.33 750.085 227.154V227.154Z" fill="#4C5CAE"/>
<path d="M757.767 227.211C757.381 226.948 756.925 226.806 756.458 226.803C755.991 226.799 755.533 226.934 755.143 227.191C754.752 227.447 754.447 227.814 754.265 228.244C754.082 228.675 754.032 229.149 754.12 229.608C754.207 230.067 754.429 230.49 754.757 230.823C755.084 231.156 755.504 231.384 755.961 231.479C756.418 231.574 756.894 231.531 757.327 231.355C757.76 231.18 758.131 230.88 758.394 230.494C758.568 230.237 758.691 229.948 758.753 229.645C758.816 229.341 758.819 229.027 758.761 228.722C758.703 228.418 758.585 228.127 758.414 227.868C758.244 227.608 758.024 227.385 757.767 227.211Z" fill="#4C5CAE"/>
<path d="M765.457 227.24C765.071 226.978 764.615 226.836 764.148 226.832C763.681 226.829 763.223 226.964 762.833 227.221C762.442 227.477 762.136 227.844 761.954 228.274C761.772 228.704 761.722 229.179 761.809 229.638C761.897 230.097 762.119 230.52 762.446 230.853C762.774 231.186 763.193 231.414 763.651 231.509C764.108 231.604 764.584 231.561 765.017 231.385C765.45 231.21 765.821 230.91 766.084 230.524C766.258 230.267 766.38 229.978 766.443 229.674C766.506 229.37 766.509 229.057 766.451 228.752C766.393 228.447 766.275 228.157 766.104 227.898C765.934 227.638 765.714 227.415 765.457 227.24V227.24Z" fill="#4C5CAE"/>
<path d="M778.293 229.324C778.297 228.855 778.162 228.396 777.904 228.004C777.647 227.612 777.279 227.305 776.847 227.123C776.415 226.94 775.939 226.89 775.478 226.978C775.018 227.067 774.594 227.289 774.26 227.619C773.927 227.948 773.698 228.369 773.604 228.829C773.509 229.288 773.553 229.765 773.73 230.199C773.907 230.633 774.209 231.005 774.597 231.268C774.986 231.531 775.443 231.672 775.912 231.675C776.223 231.677 776.531 231.618 776.819 231.501C777.107 231.384 777.369 231.212 777.59 230.994C777.812 230.775 777.988 230.515 778.108 230.229C778.229 229.942 778.292 229.635 778.293 229.324Z" fill="#4C5CAE"/>
<path d="M777.256 227.367C776.868 227.102 776.411 226.959 775.942 226.954C775.473 226.949 775.013 227.084 774.621 227.341C774.229 227.599 773.921 227.966 773.738 228.398C773.555 228.83 773.504 229.307 773.592 229.767C773.68 230.228 773.903 230.653 774.232 230.987C774.562 231.321 774.983 231.55 775.442 231.644C775.901 231.739 776.379 231.695 776.813 231.518C777.248 231.341 777.62 231.039 777.882 230.65C778.231 230.13 778.361 229.494 778.244 228.88C778.126 228.265 777.771 227.721 777.256 227.367V227.367Z" fill="#4C5CAE"/>
<path d="M784.939 227.397C784.552 227.138 784.097 227 783.632 226.999C783.167 226.998 782.712 227.134 782.324 227.391C781.935 227.648 781.632 228.013 781.451 228.442C781.27 228.87 781.219 229.343 781.305 229.8C781.392 230.257 781.611 230.679 781.936 231.012C782.261 231.345 782.677 231.574 783.132 231.672C783.587 231.769 784.06 231.73 784.493 231.56C784.926 231.389 785.299 231.095 785.565 230.713C785.744 230.455 785.869 230.164 785.935 229.856C786 229.549 786.004 229.232 785.946 228.924C785.887 228.615 785.768 228.321 785.595 228.059C785.423 227.797 785.199 227.572 784.939 227.397V227.397Z" fill="#4C5CAE"/>
<path d="M792.635 227.453C792.248 227.19 791.793 227.048 791.325 227.045C790.858 227.041 790.401 227.176 790.01 227.433C789.62 227.69 789.314 228.056 789.132 228.487C788.95 228.917 788.899 229.392 788.987 229.85C789.075 230.309 789.296 230.732 789.624 231.065C789.952 231.398 790.371 231.626 790.828 231.721C791.286 231.816 791.761 231.773 792.194 231.598C792.627 231.422 792.999 231.122 793.261 230.736C793.436 230.479 793.558 230.191 793.621 229.887C793.684 229.583 793.686 229.269 793.628 228.965C793.57 228.66 793.452 228.369 793.282 228.11C793.111 227.851 792.892 227.627 792.635 227.453Z" fill="#4C5CAE"/>
<path d="M800.318 227.509C799.931 227.251 799.476 227.112 799.011 227.111C798.546 227.11 798.091 227.247 797.702 227.503C797.314 227.76 797.011 228.125 796.83 228.554C796.649 228.983 796.598 229.455 796.684 229.912C796.771 230.37 796.99 230.791 797.315 231.124C797.64 231.457 798.056 231.687 798.511 231.784C798.966 231.882 799.439 231.843 799.872 231.672C800.305 231.501 800.678 231.207 800.944 230.825C801.124 230.567 801.25 230.276 801.316 229.969C801.382 229.662 801.386 229.344 801.327 229.035C801.269 228.727 801.15 228.433 800.976 228.171C800.803 227.908 800.579 227.683 800.318 227.509V227.509Z" fill="#4C5CAE"/>
<path d="M808.007 227.559C807.62 227.294 807.163 227.15 806.694 227.146C806.225 227.141 805.765 227.276 805.372 227.533C804.98 227.79 804.673 228.158 804.49 228.59C804.307 229.022 804.256 229.499 804.344 229.959C804.432 230.42 804.654 230.844 804.984 231.179C805.313 231.513 805.734 231.741 806.194 231.836C806.653 231.93 807.13 231.886 807.565 231.709C807.999 231.532 808.371 231.23 808.634 230.842C808.984 230.323 809.115 229.686 808.998 229.071C808.88 228.456 808.524 227.912 808.007 227.559V227.559Z" fill="#4C5CAE"/>
<path d="M733.563 100.645C733.568 100.176 733.434 99.7158 733.177 99.3231C732.92 98.9304 732.553 98.6228 732.121 98.4392C731.689 98.2556 731.213 98.2043 730.752 98.2919C730.291 98.3794 729.867 98.6019 729.532 98.931C729.198 99.2601 728.969 99.6811 728.874 100.141C728.779 100.6 728.823 101.077 729 101.512C729.176 101.947 729.478 102.319 729.866 102.582C730.255 102.845 730.713 102.987 731.182 102.989C731.492 102.992 731.8 102.934 732.088 102.818C732.376 102.702 732.639 102.53 732.86 102.312C733.081 102.094 733.257 101.835 733.378 101.549C733.499 101.263 733.562 100.956 733.563 100.645V100.645Z" fill="#4C5CAE"/>
<path d="M732.525 98.6678C732.139 98.4053 731.683 98.2633 731.216 98.2597C730.749 98.2562 730.291 98.3913 729.901 98.6479C729.51 98.9045 729.205 99.2711 729.022 99.7014C728.84 100.132 728.79 100.606 728.877 101.065C728.965 101.524 729.187 101.947 729.514 102.28C729.842 102.613 730.261 102.841 730.719 102.936C731.176 103.031 731.652 102.988 732.085 102.812C732.518 102.637 732.889 102.337 733.152 101.951C733.502 101.432 733.633 100.795 733.516 100.18C733.399 99.5648 733.042 99.0211 732.525 98.6678V98.6678Z" fill="#4C5CAE"/>
<path d="M740.215 98.7174C739.827 98.4569 739.371 98.3168 738.904 98.3147C738.437 98.3127 737.98 98.4489 737.59 98.706C737.2 98.9632 736.894 99.3299 736.712 99.7601C736.53 100.19 736.479 100.665 736.566 101.124C736.652 101.583 736.873 102.006 737.199 102.34C737.526 102.674 737.944 102.904 738.401 103.002C738.857 103.099 739.333 103.059 739.767 102.887C740.201 102.714 740.575 102.417 740.841 102.033C741.02 101.775 741.146 101.484 741.211 101.177C741.276 100.87 741.28 100.553 741.222 100.244C741.163 99.9359 741.044 99.642 740.872 99.3798C740.699 99.1177 740.475 98.8925 740.215 98.7174V98.7174Z" fill="#4C5CAE"/>
<path d="M747.898 98.7737C747.511 98.5112 747.056 98.3692 746.588 98.3657C746.121 98.3621 745.663 98.4972 745.273 98.7538C744.883 99.0105 744.577 99.3771 744.395 99.8074C744.213 100.238 744.162 100.712 744.25 101.171C744.337 101.63 744.559 102.053 744.887 102.386C745.215 102.719 745.634 102.947 746.091 103.042C746.549 103.137 747.024 103.094 747.457 102.918C747.89 102.743 748.262 102.443 748.524 102.057C748.875 101.538 749.006 100.901 748.889 100.286C748.771 99.6707 748.415 99.127 747.898 98.7737V98.7737Z" fill="#4C5CAE"/>
<path d="M755.587 98.823C755.2 98.5646 754.746 98.4262 754.281 98.4252C753.815 98.4242 753.36 98.5605 752.972 98.8172C752.584 99.0739 752.281 99.4395 752.099 99.8681C751.918 100.297 751.868 100.769 751.954 101.226C752.04 101.684 752.26 102.105 752.585 102.438C752.91 102.771 753.326 103.001 753.78 103.098C754.235 103.196 754.709 103.157 755.142 102.986C755.575 102.815 755.947 102.521 756.213 102.139C756.392 101.881 756.518 101.59 756.583 101.283C756.649 100.976 756.652 100.659 756.594 100.35C756.536 100.041 756.417 99.7476 756.244 99.4854C756.071 99.2233 755.848 98.9981 755.587 98.823V98.823Z" fill="#4C5CAE"/>
<path d="M763.277 98.8796C762.89 98.6212 762.435 98.4828 761.97 98.4818C761.505 98.4808 761.05 98.6172 760.662 98.8738C760.273 99.1305 759.97 99.4961 759.789 99.9247C759.608 100.353 759.557 100.826 759.643 101.283C759.73 101.74 759.949 102.162 760.274 102.495C760.599 102.828 761.015 103.057 761.47 103.155C761.925 103.252 762.398 103.213 762.831 103.043C763.264 102.872 763.637 102.577 763.903 102.196C764.083 101.938 764.209 101.647 764.275 101.34C764.341 101.032 764.345 100.715 764.286 100.406C764.228 100.097 764.109 99.8032 763.935 99.5411C763.762 99.279 763.538 99.0541 763.277 98.8796Z" fill="#4C5CAE"/>
<path d="M776.127 100.937C776.13 100.468 775.995 100.008 775.737 99.6166C775.48 99.2248 775.112 98.9182 774.68 98.7356C774.248 98.553 773.772 98.5027 773.312 98.591C772.851 98.6793 772.427 98.9023 772.093 99.2316C771.76 99.561 771.531 99.982 771.437 100.441C771.343 100.901 771.387 101.378 771.564 101.812C771.741 102.246 772.042 102.618 772.431 102.881C772.819 103.143 773.277 103.285 773.745 103.287C774.056 103.29 774.364 103.231 774.652 103.114C774.94 102.997 775.203 102.825 775.424 102.606C775.645 102.388 775.821 102.128 775.942 101.842C776.062 101.555 776.125 101.248 776.127 100.937Z" fill="#4C5CAE"/>
<path d="M775.076 98.9401C774.689 98.6755 774.231 98.5318 773.762 98.5273C773.293 98.5227 772.833 98.6576 772.441 98.9147C772.049 99.1718 771.742 99.5396 771.558 99.9715C771.375 100.403 771.324 100.88 771.412 101.341C771.5 101.802 771.723 102.226 772.052 102.56C772.382 102.894 772.803 103.123 773.262 103.217C773.722 103.312 774.199 103.268 774.633 103.091C775.068 102.914 775.44 102.612 775.702 102.223C776.051 101.704 776.181 101.068 776.064 100.453C775.947 99.8382 775.592 99.2946 775.076 98.9401V98.9401Z" fill="#4C5CAE"/>
<path d="M782.765 99.0227C782.379 98.7602 781.923 98.6182 781.456 98.6147C780.988 98.6112 780.531 98.7462 780.14 99.0029C779.75 99.2595 779.444 99.6261 779.262 100.056C779.08 100.487 779.03 100.961 779.117 101.42C779.205 101.879 779.426 102.302 779.754 102.635C780.082 102.968 780.501 103.196 780.959 103.291C781.416 103.386 781.891 103.343 782.324 103.167C782.758 102.992 783.129 102.692 783.392 102.306C783.742 101.787 783.873 101.15 783.756 100.535C783.638 99.9197 783.282 99.376 782.765 99.0227V99.0227Z" fill="#4C5CAE"/>
<path d="M790.448 99.0657C790.061 98.8073 789.607 98.6689 789.141 98.6679C788.676 98.6668 788.221 98.8032 787.833 99.0599C787.445 99.3166 787.141 99.6821 786.96 100.111C786.779 100.539 786.728 101.012 786.815 101.469C786.901 101.926 787.12 102.348 787.445 102.681C787.77 103.014 788.186 103.243 788.641 103.341C789.096 103.438 789.57 103.399 790.003 103.229C790.435 103.058 790.808 102.763 791.074 102.382C791.253 102.124 791.379 101.833 791.444 101.525C791.509 101.218 791.513 100.901 791.455 100.593C791.397 100.284 791.278 99.9902 791.105 99.7281C790.932 99.4659 790.709 99.2408 790.448 99.0657V99.0657Z" fill="#4C5CAE"/>
<path d="M798.137 99.1218C797.751 98.8593 797.295 98.7173 796.828 98.7138C796.361 98.7103 795.903 98.8453 795.513 99.102C795.122 99.3586 794.817 99.7252 794.635 100.156C794.453 100.586 794.402 101.06 794.49 101.519C794.577 101.978 794.799 102.401 795.127 102.734C795.454 103.067 795.874 103.295 796.331 103.39C796.789 103.485 797.264 103.442 797.697 103.266C798.13 103.091 798.501 102.791 798.764 102.405C798.938 102.148 799.061 101.86 799.124 101.556C799.187 101.252 799.189 100.938 799.131 100.634C799.073 100.329 798.955 100.038 798.785 99.7788C798.614 99.5195 798.394 99.2962 798.137 99.1218V99.1218Z" fill="#4C5CAE"/>
<path d="M805.827 99.178C805.44 98.9155 804.985 98.7735 804.518 98.7699C804.05 98.7664 803.593 98.9015 803.202 99.1581C802.812 99.4147 802.506 99.7814 802.324 100.212C802.142 100.642 802.091 101.117 802.179 101.576C802.267 102.035 802.488 102.457 802.816 102.79C803.144 103.123 803.563 103.352 804.021 103.446C804.478 103.541 804.953 103.498 805.386 103.323C805.819 103.147 806.191 102.847 806.453 102.461C806.628 102.204 806.75 101.916 806.813 101.612C806.876 101.308 806.878 100.995 806.82 100.69C806.762 100.385 806.644 100.094 806.474 99.835C806.304 99.5756 806.084 99.3524 805.827 99.178V99.178Z" fill="#4C5CAE"/>
<path d="M578.117 233.867L576.245 233.854L576.342 219.731L578.215 219.744L578.117 233.867Z" fill="#4C5CAE"/>
<path d="M578.117 233.867L576.245 233.854L576.342 219.731L578.215 219.744L578.117 233.867Z" fill="#4C5CAE"/>
<path d="M583.146 233.901L581.274 233.888L581.371 219.765L583.244 219.778L583.146 233.901Z" fill="#4C5CAE"/>
<path d="M588.181 233.939L586.308 233.926L586.408 219.803L588.281 219.816L588.181 233.939Z" fill="#4C5CAE"/>
<path d="M593.21 233.965L591.337 233.952L591.437 219.829L593.31 219.842L593.21 233.965Z" fill="#4C5CAE"/>
<path d="M598.248 234.002L596.375 233.989L596.473 219.866L598.346 219.879L598.248 234.002Z" fill="#4C5CAE"/>
<path d="M603.276 234.038L601.403 234.024L601.503 219.901L603.376 219.914L603.276 234.038Z" fill="#4C5CAE"/>
<path d="M608.314 234.076L606.441 234.063L606.538 219.94L608.411 219.953L608.314 234.076Z" fill="#4C5CAE"/>
<path d="M613.343 234.11L611.47 234.097L611.568 219.974L613.441 219.987L613.343 234.11Z" fill="#4C5CAE"/>
<path d="M618.409 234.282L616.536 234.269L616.636 220.146L618.509 220.159L618.409 234.282Z" fill="#4C5CAE"/>
<path d="M623.408 234.184L621.535 234.171L621.633 220.048L623.506 220.061L623.408 234.184Z" fill="#4C5CAE"/>
<path d="M628.446 234.22L626.573 234.208L626.668 220.084L628.541 220.097L628.446 234.22Z" fill="#4C5CAE"/>
<path d="M633.505 234.384L631.633 234.371L631.73 220.248L633.603 220.261L633.505 234.384Z" fill="#4C5CAE"/>
<path d="M638.51 234.285L636.637 234.272L636.735 220.149L638.607 220.162L638.51 234.285Z" fill="#4C5CAE"/>
<path d="M643.541 234.324L641.668 234.312L641.763 220.188L643.636 220.201L643.541 234.324Z" fill="#4C5CAE"/>
<path d="M648.577 234.358L646.704 234.346L646.799 220.222L648.672 220.235L648.577 234.358Z" fill="#4C5CAE"/>
<path d="M653.603 234.393L651.73 234.379L651.83 220.256L653.703 220.269L653.603 234.393Z" fill="#4C5CAE"/>
<path d="M658.642 234.434L656.769 234.422L656.864 220.299L658.737 220.311L658.642 234.434Z" fill="#4C5CAE"/>
<path d="M663.699 234.591L661.827 234.578L661.927 220.454L663.799 220.468L663.699 234.591Z" fill="#4C5CAE"/>
<path d="M668.704 234.504L666.831 234.491L666.931 220.368L668.804 220.381L668.704 234.504Z" fill="#4C5CAE"/>
<path d="M1221.46 408.381L1219.59 408.368L1219.65 398.494L1221.53 398.507L1221.46 408.381Z" fill="#4C5CAE"/>
<path d="M1221.46 408.381L1219.59 408.368L1219.65 398.494L1221.53 398.507L1221.46 408.381Z" fill="#4C5CAE"/>
<path d="M1226.5 408.415L1224.62 408.402L1224.69 398.527L1226.56 398.54L1226.5 408.415Z" fill="#4C5CAE"/>
<path d="M1231.52 408.448L1229.65 408.436L1229.72 398.561L1231.59 398.574L1231.52 408.448Z" fill="#4C5CAE"/>
<path d="M1236.56 408.489L1234.69 408.476L1234.76 398.601L1236.63 398.614L1236.56 408.489Z" fill="#4C5CAE"/>
<path d="M1241.65 408.57L1239.78 408.557L1239.84 398.682L1241.72 398.695L1241.65 408.57Z" fill="#4C5CAE"/>
<path d="M1246.63 408.556L1244.75 408.543L1244.82 398.669L1246.69 398.682L1246.63 408.556Z" fill="#4C5CAE"/>
<path d="M1251.66 408.596L1249.78 408.583L1249.85 398.709L1251.72 398.722L1251.66 408.596Z" fill="#4C5CAE"/>
<path d="M1256.69 408.624L1254.82 408.611L1254.89 398.737L1256.76 398.749L1256.69 408.624Z" fill="#4C5CAE"/>
<path d="M1261.74 408.671L1259.87 408.658L1259.94 398.783L1261.81 398.796L1261.74 408.671Z" fill="#4C5CAE"/>
<path d="M1266.76 408.698L1264.88 408.685L1264.95 398.81L1266.82 398.823L1266.76 408.698Z" fill="#4C5CAE"/>
<path d="M1271.84 408.775L1269.97 408.762L1270.04 398.888L1271.91 398.901L1271.84 408.775Z" fill="#4C5CAE"/>
<path d="M1276.82 408.772L1274.94 408.759L1275.01 398.884L1276.88 398.897L1276.82 408.772Z" fill="#4C5CAE"/>
<path d="M1281.85 408.805L1279.98 408.792L1280.05 398.918L1281.92 398.931L1281.85 408.805Z" fill="#4C5CAE"/>
<path d="M1286.88 408.839L1285.01 408.826L1285.08 398.952L1286.95 398.965L1286.88 408.839Z" fill="#4C5CAE"/>
<path d="M1291.92 408.88L1290.05 408.867L1290.12 398.992L1291.99 399.006L1291.92 408.88Z" fill="#4C5CAE"/>
<path d="M1296.95 408.913L1295.07 408.9L1295.14 399.026L1297.01 399.039L1296.95 408.913Z" fill="#4C5CAE"/>
<path d="M1301.98 408.946L1300.11 408.933L1300.18 399.058L1302.05 399.071L1301.98 408.946Z" fill="#4C5CAE"/>
<path d="M1307.01 408.981L1305.14 408.968L1305.21 399.093L1307.08 399.106L1307.01 408.981Z" fill="#4C5CAE"/>
<path d="M1312.05 409.014L1310.17 409.001L1310.24 399.127L1312.12 399.14L1312.05 409.014Z" fill="#4C5CAE"/>
<path d="M992.385 274.11L987.898 274.079L987.953 266.335L992.44 266.367L992.385 274.11Z" fill="#4C5CAE"/>
<path d="M992.385 274.11L987.898 274.079L987.953 266.335L992.44 266.367L992.385 274.11Z" fill="#4C5CAE"/>
<path d="M1004.4 274.139L999.911 274.108L999.964 266.365L1004.45 266.396L1004.4 274.139Z" fill="#4C5CAE"/>
<path d="M1016.43 274.222L1011.95 274.191L1012 266.448L1016.49 266.479L1016.43 274.222Z" fill="#4C5CAE"/>
<path d="M1028.5 274.359L1024.01 274.328L1024.07 266.584L1028.55 266.615L1028.5 274.359Z" fill="#4C5CAE"/>
<path d="M1040.52 274.402L1036.03 274.371L1036.08 266.627L1040.57 266.658L1040.52 274.402Z" fill="#4C5CAE"/>
<path d="M1052.57 274.518L1048.09 274.487L1048.14 266.744L1052.63 266.775L1052.57 274.518Z" fill="#4C5CAE"/>
<path d="M1064.62 274.609L1060.13 274.577L1060.18 266.834L1064.67 266.866L1064.62 274.609Z" fill="#4C5CAE"/>
<path d="M1076.64 274.651L1072.15 274.62L1072.2 266.876L1076.69 266.907L1076.64 274.651Z" fill="#4C5CAE"/>
<path d="M1088.67 274.74L1084.19 274.709L1084.24 266.966L1088.73 266.997L1088.67 274.74Z" fill="#4C5CAE"/>
<path d="M1100.73 274.865L1096.24 274.833L1096.3 267.09L1100.78 267.122L1100.73 274.865Z" fill="#4C5CAE"/>
<path d="M1112.77 274.94L1108.28 274.909L1108.33 267.165L1112.82 267.196L1112.77 274.94Z" fill="#4C5CAE"/>
<path d="M1124.78 274.996L1120.29 274.965L1120.35 267.222L1124.83 267.253L1124.78 274.996Z" fill="#4C5CAE"/>
<path d="M1136.82 275.072L1132.33 275.041L1132.38 267.298L1136.87 267.329L1136.82 275.072Z" fill="#4C5CAE"/>
<path d="M1148.85 275.155L1144.37 275.124L1144.42 267.381L1148.91 267.412L1148.85 275.155Z" fill="#4C5CAE"/>
<path d="M1160.89 275.245L1156.4 275.214L1156.46 267.471L1160.94 267.502L1160.89 275.245Z" fill="#4C5CAE"/>
<path d="M1172.93 275.321L1168.44 275.29L1168.49 267.547L1172.98 267.578L1172.93 275.321Z" fill="#4C5CAE"/>
<path d="M1184.97 275.41L1180.48 275.379L1180.53 267.636L1185.02 267.667L1184.97 275.41Z" fill="#4C5CAE"/>
<path d="M1197 275.493L1192.52 275.462L1192.57 267.719L1197.06 267.75L1197 275.493Z" fill="#4C5CAE"/>
<path d="M1209.06 275.603L1204.57 275.572L1204.63 267.829L1209.11 267.86L1209.06 275.603Z" fill="#4C5CAE"/>
<path d="M378.529 3.99976L6.46682 4.69232L6.4709 6.77727L377.673 6.08208L445.705 73.868L835.543 73.1415L950.379 187.563L1003.71 187.462L1003.71 185.383L951.235 185.481L836.4 71.0592L446.561 71.7857L378.529 3.99976Z" fill="#4C5CAE"/>
<path d="M1008.4 186.413C1008.4 185.487 1008.12 184.582 1007.6 183.812C1007.09 183.043 1006.35 182.444 1005.5 182.091C1004.64 181.738 1003.7 181.646 1002.79 181.828C1001.88 182.01 1001.05 182.458 1000.4 183.114C999.741 183.769 999.296 184.605 999.117 185.513C998.937 186.422 999.03 187.364 999.386 188.22C999.741 189.075 1000.34 189.806 1001.11 190.321C1001.88 190.835 1002.79 191.109 1003.71 191.109C1004.33 191.108 1004.94 190.987 1005.51 190.75C1006.08 190.514 1006.59 190.168 1007.03 189.732C1007.46 189.296 1007.81 188.778 1008.04 188.209C1008.28 187.639 1008.4 187.029 1008.4 186.413V186.413Z" fill="#4C5CAE"/>
<path d="M6.47685 4.97717C6.47872 5.90362 6.75523 6.80873 7.2713 7.5781C7.78737 8.34747 8.51978 8.94658 9.37621 9.29972C10.2326 9.65286 11.1745 9.74417 12.0828 9.56212C12.9911 9.38007 13.8252 8.93283 14.4794 8.27691C15.1336 7.62099 15.5788 6.78584 15.7585 5.877C15.9383 4.96816 15.8446 4.02642 15.4894 3.17079C15.1341 2.31516 14.5333 1.58405 13.7627 1.06985C12.9922 0.555655 12.0864 0.281445 11.16 0.281878C10.5439 0.281293 9.93368 0.402427 9.36447 0.638325C8.79526 0.874222 8.27826 1.22024 7.84312 1.65651C7.40798 2.09277 7.0633 2.6107 6.82885 3.18056C6.59439 3.75041 6.47473 4.36096 6.47685 4.97717V4.97717Z" fill="#4C5CAE"/>
<path d="M467.588 440.974C467.588 440.047 467.312 439.141 466.797 438.371C466.282 437.601 465.55 437 464.693 436.646C463.837 436.292 462.895 436.2 461.986 436.381C461.077 436.563 460.243 437.009 459.588 437.665C458.933 438.321 458.487 439.156 458.307 440.065C458.127 440.974 458.22 441.916 458.575 442.772C458.93 443.628 459.531 444.359 460.302 444.874C461.072 445.388 461.978 445.663 462.905 445.662C463.52 445.662 464.13 445.541 464.698 445.305C465.266 445.069 465.783 444.723 466.218 444.288C466.652 443.853 466.997 443.336 467.232 442.767C467.468 442.199 467.588 441.589 467.588 440.974V440.974Z" fill="#4C5CAE"/>
</g>
<defs>
<clipPath id="clip0_740_988">
<rect width="1557.48" height="606.242" fill="white" transform="matrix(-0.999942 -0.0107506 -0.0107506 0.999942 1563.91 16.7441)"/>
</clipPath>
</defs>
</svg>
